<?xml version="1.0" encoding="UTF-8"?>
<svg id="Capa_1" data-name="Capa 1" xmlns="http://www.w3.org/2000/svg" viewBox="0 0 1080 1080">
  <defs>
    <style>
      .cls-1 {
        fill: #3c3c3b;
      }

      .cls-2 {
        fill: #8a2613;
      }

      .cls-3 {
        fill: #8a2512;
      }
    </style>
  </defs>
  <g>
    <path class="cls-3" d="M574.43,862.26c69.22,0,135.75-23.33,183.29-64.43,47.44-41.07,74.66-97.74,78.72-163.9l.04-35.07-.1-2.64c-.05-1.29-.11-2.58-.24-3.89-7.56-100.62-40.32-159.1-74.6-207.32-11.87-16.7-24.37-32.63-37.59-49.49-40.92-52.17-87.3-111.3-125.46-210.54l-23.75-61.8-23.91,61.75c-1.2,3.07-2.4,6.11-3.61,9.11l-1.43,3.61c-37.14,91.57-81.4,148.02-120.46,197.81-55.17,70.36-102.83,131.13-112.27,257.32-.11,1.76-.18,3.48-.25,5.93v34.4l.04,1.35c9.73,153.4,139.59,225.59,256.15,227.75,1.81.03,3.61.04,5.42.04ZM363.39,632.43v-33.03c.03-1.3.08-2.57.15-3.66,8.43-112.79,50.11-165.92,102.86-233.19,34.65-44.18,73.21-93.36,108.23-166.63,34.96,73.23,73.5,122.37,108.28,166.7,12.88,16.43,25.05,31.94,36.29,47.75,35.33,49.69,60.16,100.23,66.52,185.37l.2,36.22c-3.45,53.82-25.19,99.49-62.89,132.13-39.22,33.9-95.25,52.35-153.02,51.75-97-1.79-198.4-59.22-206.61-183.41Z"/>
    <path class="cls-2" d="M670.34,638.34c8.49,0,15.42-6.33,15.42-14.14s-6.92-14.14-15.42-14.14-15.42,6.34-15.42,14.14,6.89,14.14,15.42,14.14ZM670.34,649.07c-19.02-6.25-43.67,1.33-33.91,22.08,13.91,29.63-22.9,83.08-76.46,55.44-3.25-1.67-6.15-3.43-8.81-5.28-37.17-25.79-20.87-68.63,0-108.53,4.51-8.66,9.27-17.17,13.74-25.35,13.98-25.69,8.22-70.69-13.74-85.01-11.64-7.57-27.76-6.57-47.93,10.33-52.62,44.07,24.72,199.7-19.75,177.65-56.05-27.81-45.31-126.62-1.22-192.35,39.44-58.8,66.6-95.85,66.6-166.31-10.63,42.27-24.26,57.79-50.56,96.17-37.65,54.92-71.57,78.8-83.28,156.13-7.73,51.19,3.92,92.11,26.05,120.62,23.18,29.84,65.87,49.95,110.1,52.92,34.89,2.36,70.8-5.98,98.84-28.7,8.18-6.66,14.89-12.91,20.35-18.73,32.37-34.7,19.02-54.81,0-61.07Z"/>
  </g>
  <path class="cls-1" d="M524.04,995.52l13.76-.17v-61.66l-13.76.04v61.79ZM543.29,995.52h13.76v-44.57l-13.76.04v44.52ZM511.42,953.91c-2.3-2.14-5-3.8-8.11-4.96-3.1-1.16-6.3-1.74-9.57-1.74s-6.5.59-9.57,1.78c-3.08,1.13-5.78,2.77-8.11,4.91-2.36,2.15-4.21,4.67-5.56,7.57-1.35,2.93-2.03,6.09-2.03,9.48,0,4.49,1.16,8.57,3.49,12.22,2.3,3.59,5.4,6.44,9.31,8.52,3.91,2.06,8.06,3.09,12.46,3.09,3.33,0,6.53-.59,9.57-1.78.43-.14,1.11-.42,2.03-.83v3.21l13.67.13.04-24.56c0-3.39-.68-6.55-2.03-9.48-1.32-2.84-3.19-5.36-5.61-7.57ZM501.85,978.91c-2.27,2.2-4.97,3.3-8.11,3.3s-5.79-1.1-8.06-3.3c-2.3-2.23-3.45-4.88-3.45-7.96,0-2.03.53-3.9,1.6-5.61,1.06-1.71,2.49-3.07,4.27-4.09,1.78-.99,3.67-1.48,5.65-1.48s3.94.49,5.69,1.48c1.78,1.02,3.21,2.38,4.27,4.09,1.06,1.71,1.6,3.58,1.6,5.61,0,3.07-1.15,5.73-3.45,7.96ZM553.55,932.03c-1.09-.64-2.3-.96-3.62-.96s-2.52.32-3.58.96c-1.06.64-1.94,1.52-2.63,2.65-.63,1.1-.95,2.32-.95,3.65s.33,2.54.99,3.7c.63,1.1,1.49,1.99,2.59,2.65,1.06.64,2.26.96,3.58.96s2.53-.33,3.62-1c1.09-.67,1.95-1.54,2.59-2.61.63-1.07.95-2.3.95-3.7s-.32-2.55-.95-3.65c-.66-1.13-1.52-2.01-2.59-2.65ZM671.5,949.16h-.78c-12.71.64-19.06,7.29-19.06,19.96v26.31h13.8v-26.31c0-4.78,1.75-7.25,5.26-7.39h.78c3.51.15,5.26,2.61,5.26,7.39v26.31h13.8v-26.31c0-12.67-6.35-19.32-19.06-19.96ZM632.67,975.95c0,2.61-.6,4.6-1.81,5.96-1.27,1.36-2.95,2.04-5.05,2.04s-3.88-.67-5.09-2c-1.21-1.36-1.81-3.36-1.81-6v-25h-13.8v25.96c0,14.52,6.8,21.06,20.4,19.61,2.21-.2,4.63-.84,7.24-1.91v5.96h-.04v.44c-.03.09-.04.16-.04.22-.03.41-.1.74-.22,1l-.09.3-.09.3-.09.22-.04.13c-.66,1.59-1.65,2.84-2.98,3.74-1.41.99-2.96,1.48-4.66,1.48-2.18,0-4.07-.75-5.65-2.26-1.58-1.51-2.43-3.36-2.54-5.57l-12.46,7.35c.57,1.97,2.07,4.2,4.48,6.7,3.71,3.71,8.64,5.62,14.79,5.74h2.29c2.76,0,5.5-.49,8.24-1.48,3.02-1.1,5.39-2.52,7.11-4.26,3.79-3.88,5.69-8.52,5.69-13.91v-49.74l-13.8.04v24.96ZM586.34,984.52c-2.3,0-4.33-.57-6.08-1.7-1.81-1.1-3.18-2.59-4.1-4.48-.95-1.88-1.42-4.01-1.42-6.39,0-3.04,1.11-5.59,3.32-7.65,2.18-2.06,4.86-3.09,8.02-3.09,1.7,0,3.31.26,4.83.78,1.47.52,2.82,1.3,4.05,2.35l7.16-9.83c-2.16-1.74-4.64-3.09-7.46-4.04-2.79-.93-5.65-1.39-8.58-1.39-3.59,0-6.94.59-10.05,1.78-3.13,1.22-5.79,2.88-7.98,5-2.21,2.17-3.95,4.78-5.22,7.83-1.24,2.99-1.85,6.32-1.85,10,0,4.03,1.02,7.81,3.06,11.35,2.04,3.48,4.97,6.29,8.8,8.43,3.82,2.12,8.24,3.17,13.24,3.17,1.78,0,3.72-.22,5.82-.65,2.1-.44,4.14-1.1,6.12-2,1.95-.9,3.48-1.93,4.57-3.09l-7.55-9.65c-2.41,2.17-5.32,3.26-8.71,3.26Z"/>
  <path class="cls-1" d="M507,1012.6c-.47.89-1.38,1.42-2.45,1.42-1.65,0-2.89-1.26-2.89-2.92s1.27-2.92,2.89-2.92c1.08,0,2,.54,2.4,1.41l.07.15.85-.5-.06-.12c-.55-1.19-1.79-1.93-3.26-1.93-2.23,0-3.91,1.68-3.91,3.92s1.68,3.92,3.91,3.92c1.43,0,2.7-.73,3.31-1.91l.07-.13-.86-.51-.07.14ZM509.17,1014.86h1.01v-7.52h-1.01v7.52ZM498.02,1008.32v-.98h-1.01v7.52h1.01v-4.16c0-1.82,1.16-2.46,2.24-2.46h.15v-.99h-.15c-.99,0-1.75.37-2.24,1.08ZM486.16,1004.45c-.39,0-.72.33-.72.71s.32.73.72.73.72-.33.72-.73-.33-.71-.72-.71ZM485.65,1014.86h1.01v-7.52h-1.01v7.52ZM491.94,1007.18c-2.24,0-3.86,1.65-3.86,3.92s1.65,3.92,3.91,3.92c1.42,0,2.6-.62,3.25-1.7l.08-.13-.89-.53-.07.14c-.42.77-1.3,1.23-2.35,1.23-1.51,0-2.64-.96-2.86-2.4h6.46v-.15c0-.06,0-.11,0-.16,0-.06,0-.12,0-.18,0-1.91-1.29-3.95-3.68-3.95ZM489.14,1010.62c.2-1.47,1.31-2.44,2.8-2.44,1.39,0,2.43.97,2.63,2.44h-5.42ZM480.94,1004.45h-3.56v10.41h1.06v-3.85h2.5c1.86,0,3.27-1.41,3.27-3.27s-1.41-3.28-3.27-3.28ZM480.94,1009.98h-2.5v-4.51h2.5c1.28,0,2.21.95,2.21,2.26s-.93,2.25-2.21,2.25ZM509.67,1004.45c-.39,0-.72.33-.72.71s.32.73.72.73.72-.33.72-.73-.33-.71-.72-.71ZM595.97,1007.18c-2.23,0-3.86,1.65-3.86,3.92s1.65,3.92,3.91,3.92c1.42,0,2.6-.62,3.25-1.7l.08-.13-.89-.53-.07.14c-.42.77-1.3,1.23-2.35,1.23-1.51,0-2.64-.96-2.86-2.4h6.46v-.15c0-.06,0-.11,0-.16,0-.06,0-.12,0-.18,0-1.91-1.29-3.95-3.68-3.95ZM593.17,1010.62c.2-1.47,1.31-2.44,2.8-2.44,1.39,0,2.43.97,2.63,2.44h-5.42ZM515.52,1007.18c-1.03,0-1.86.4-2.41,1.15v-.99h-1.01v7.52h1.01v-3.96c0-1.7.88-2.72,2.36-2.72,1.22,0,1.95.76,1.95,2.04v4.64h1.03v-4.64c0-1.85-1.15-3.04-2.93-3.04ZM555.1,1007.18c-2.23,0-3.86,1.65-3.86,3.92s1.65,3.92,3.91,3.92c1.42,0,2.6-.62,3.25-1.7l.08-.13-.89-.53-.07.14c-.42.77-1.3,1.23-2.35,1.23-1.51,0-2.64-.96-2.86-2.4h6.46v-.15c0-.06,0-.11,0-.16,0-.06,0-.12,0-.18,0-1.91-1.29-3.95-3.68-3.95ZM552.31,1010.62c.2-1.47,1.31-2.44,2.8-2.44,1.39,0,2.43.97,2.63,2.44h-5.42ZM561.19,1008.32v-.98h-1.01v7.52h1.01v-4.16c0-1.82,1.16-2.46,2.24-2.46h.15v-.99h-.15c-.99,0-1.75.37-2.24,1.08ZM585.53,1008.62c-.68-.92-1.73-1.43-2.93-1.43-2.16,0-3.86,1.72-3.86,3.92s1.69,3.92,3.86,3.92c1.2,0,2.25-.52,2.93-1.43v1.28h1.03v-7.52h-1.03v1.28ZM582.66,1014.02c-1.62,0-2.89-1.28-2.89-2.92s1.27-2.92,2.89-2.92,2.87,1.28,2.87,2.92-1.26,2.92-2.87,2.92ZM589.49,1008.32v-.98h-1.01v7.52h1.01v-4.16c0-1.82,1.16-2.46,2.24-2.46h.15v-.99h-.15c-.99,0-1.75.37-2.24,1.08ZM577,1011.94c-.64,1.24-2.02,2.04-3.52,2.04-2.45,0-4.3-1.86-4.3-4.32s1.85-4.32,4.3-4.32c1.48,0,2.85.79,3.49,2l.07.14.93-.54-.07-.13c-.87-1.54-2.56-2.5-4.42-2.5-3.06,0-5.36,2.3-5.36,5.36s2.3,5.36,5.36,5.36c1.88,0,3.59-.98,4.45-2.55l.07-.13-.94-.54-.07.14ZM548.61,1005.27l-1.03.3v1.77h-1.57v1.01h1.57v4.54c0,.74.19,1.27.58,1.61.34.3.83.44,1.49.44.29,0,.61-.03.97-.08l.13-.02v-.94h-.16c-.83.09-1.43.12-1.72-.15-.17-.16-.25-.43-.25-.86v-4.54h2.13v-1.01h-2.13v-2.07ZM537.33,1004.45h-1l-4.01,10.41h1.12l.97-2.57h4.82l.94,2.47.04.1h1.12l-3.96-10.31-.04-.1ZM534.81,1011.27l2.02-5.3,2.02,5.3h-4.03ZM526.52,1008.64c-.67-.93-1.72-1.46-2.93-1.46-2.16,0-3.86,1.72-3.86,3.92s1.69,3.92,3.86,3.92c1.21,0,2.26-.53,2.93-1.46v.8c0,1.6-1.01,2.55-2.7,2.55-1.31,0-2.19-.44-2.61-1.32l-.07-.14-.89.51.06.13c.56,1.15,1.84,1.82,3.51,1.82,2.22,0,3.71-1.42,3.71-3.54v-7.02h-1.01v1.3ZM523.64,1014.02c-1.62,0-2.89-1.28-2.89-2.92s1.27-2.92,2.89-2.92,2.89,1.28,2.89,2.92-1.27,2.92-2.89,2.92ZM543.38,1004.93c-.52.48-.79,1.24-.79,2.17v.24h-1.23v1.01h1.23v6.51h1.03v-6.51h2.13v-1.01h-2.13v-.24c0-.66.16-1.15.48-1.44.32-.3.82-.42,1.5-.37h.16s0-.98,0-.98h-.14c-.96-.09-1.71.13-2.23.62Z"/>
</svg>